<svg width="48" height="48" viewBox="0 0 48 48" fill="none" xmlns="http://www.w3.org/2000/svg">
<rect width="48" height="48" rx="10" transform="matrix(-1 0 0 1 48 0)" fill="#D3F2FF"/>
<path d="M26.4401 33.3334C26.2409 33.3341 26.044 33.2901 25.8641 33.2047C25.6841 33.1193 25.5255 32.9947 25.4001 32.84L18.9601 24.84C18.7639 24.6015 18.6567 24.3022 18.6567 23.9934C18.6567 23.6845 18.7639 23.3853 18.9601 23.1467L25.6267 15.1467C25.853 14.8744 26.1783 14.7032 26.5308 14.6707C26.8834 14.6382 27.2344 14.7471 27.5067 14.9734C27.779 15.1997 27.9502 15.5249 27.9827 15.8775C28.0153 16.23 27.9064 16.5811 27.6801 16.8534L21.7201 24L27.4801 31.1467C27.6431 31.3424 27.7467 31.5807 27.7785 31.8335C27.8103 32.0862 27.7691 32.3428 27.6597 32.5728C27.5503 32.8028 27.3773 32.9967 27.1611 33.1315C26.945 33.2663 26.6948 33.3363 26.4401 33.3334Z" fill="#00A9F1"/>
</svg>
