<svg width="48" height="48" viewBox="0 0 48 48" fill="none" xmlns="http://www.w3.org/2000/svg">
<rect width="48" height="48" rx="10" fill="#D3F2FF"/>
<path d="M21.5604 33.3334C21.7596 33.3341 21.9564 33.2901 22.1364 33.2047C22.3164 33.1193 22.4749 32.9947 22.6004 32.84L29.0404 24.84C29.2365 24.6015 29.3438 24.3022 29.3438 23.9934C29.3438 23.6845 29.2365 23.3853 29.0404 23.1467L22.3738 15.1467C22.1474 14.8744 21.8222 14.7032 21.4697 14.6707C21.1171 14.6382 20.7661 14.7471 20.4938 14.9734C20.2215 15.1997 20.0502 15.5249 20.0177 15.8775C19.9852 16.23 20.0941 16.5811 20.3204 16.8534L26.2804 24L20.5204 31.1467C20.3574 31.3424 20.2538 31.5807 20.222 31.8335C20.1901 32.0862 20.2314 32.3428 20.3408 32.5728C20.4502 32.8028 20.6232 32.9967 20.8393 33.1315C21.0555 33.2663 21.3057 33.3363 21.5604 33.3334Z" fill="#00A9F1"/>
</svg>
