<svg width="31" height="31" viewBox="0 0 31 31" fill="none" xmlns="http://www.w3.org/2000/svg">
<path d="M21.0384 15.3179L29.5671 6.78918C30.6137 5.74259 30.6137 4.04571 29.5671 2.99827L27.6717 1.10281C26.6251 0.0562234 24.9282 0.0562234 23.8807 1.10281L15.3521 9.63151L6.82336 1.10281C5.77677 0.0562234 4.07989 0.0562234 3.03245 1.10281L1.13699 2.99827C0.0904031 4.04486 0.0904031 5.74173 1.13699 6.78918L9.66569 15.3179L1.13699 23.8466C0.0904031 24.8932 0.0904031 26.59 1.13699 27.6375L3.03245 29.5329C4.07904 30.5795 5.77677 30.5795 6.82336 29.5329L15.3521 21.0042L23.8807 29.5329C24.9273 30.5795 26.6251 30.5795 27.6717 29.5329L29.5671 27.6375C30.6137 26.5909 30.6137 24.894 29.5671 23.8466L21.0384 15.3179Z" fill="#6F7896"/>
</svg>
