<svg width="36" height="47" viewBox="0 0 36 47" fill="none" xmlns="http://www.w3.org/2000/svg">
<path d="M27.0195 34.5082H15.0195C13.915 34.5082 13.0195 35.4037 13.0195 36.5082C13.0195 37.6128 13.915 38.5082 15.0195 38.5082H27.0195C28.1241 38.5082 29.0195 37.6128 29.0195 36.5082C29.0195 35.4037 28.1241 34.5082 27.0195 34.5082Z" fill="#A163FE"/>
<path d="M27.0195 38.5082H15.0195C13.915 38.5082 13.0195 39.4037 13.0195 40.5082C13.0195 41.6128 13.915 42.5082 15.0195 42.5082H27.0195C28.1241 42.5082 29.0195 41.6128 29.0195 40.5082C29.0195 39.4037 28.1241 38.5082 27.0195 38.5082Z" fill="url(#paint0_linear_61_33745)"/>
<path d="M17.0195 42.5082H25.0195C25.0195 43.5691 24.5981 44.5865 23.848 45.3367C23.0978 46.0868 22.0804 46.5082 21.0195 46.5082C19.9587 46.5082 18.9413 46.0868 18.1911 45.3367C17.441 44.5865 17.0195 43.5691 17.0195 42.5082Z" fill="#B584FF"/>
<path d="M6.01953 15.5782C6.0322 19.2784 7.41847 22.8421 9.90953 25.5782C12.1066 27.9748 13.5377 30.9729 14.0195 34.1882V34.5082H28.0195V34.2182C28.5527 30.9279 30.0251 27.8616 32.2595 25.3882C34.6889 22.6269 36.0136 19.066 35.9795 15.3882C35.9223 11.5618 34.4173 7.89929 31.7676 5.13825C29.1179 2.3772 25.5203 0.72278 21.6995 0.508219C18.7926 0.371946 15.9088 1.08421 13.3995 2.55822" fill="url(#paint1_linear_61_33745)"/>
<path d="M20.0195 19.7582V13.5082H28.0195V34.5082H22.0195H20.0195V19.7582Z" fill="#B584FF"/>
<path d="M15.0895 6.50824C14.9049 6.50919 14.7242 6.45517 14.5703 6.35304C14.4165 6.25092 14.2966 6.10532 14.2258 5.93479C14.155 5.76427 14.1366 5.57653 14.1729 5.39549C14.2091 5.21446 14.2985 5.04832 14.4295 4.91824C14.5175 4.83336 14.5875 4.73161 14.6354 4.61907C14.6832 4.50653 14.7078 4.38551 14.7078 4.26324C14.7078 4.14097 14.6832 4.01995 14.6354 3.90741C14.5875 3.79487 14.5175 3.69312 14.4295 3.60824L12.9195 2.09824C12.8346 2.01023 12.7329 1.94023 12.6204 1.89242C12.5078 1.84461 12.3868 1.81996 12.2645 1.81996C12.1423 1.81996 12.0212 1.84461 11.9087 1.89242C11.7962 1.94023 11.6944 2.01023 11.6095 2.09824C11.4795 2.22927 11.3133 2.31862 11.1323 2.35491C10.9512 2.39119 10.7635 2.37277 10.593 2.30198C10.4224 2.2312 10.2768 2.11125 10.1747 1.95743C10.0726 1.80361 10.0186 1.62287 10.0195 1.43824C10.0195 1.19159 9.92155 0.955039 9.74714 0.78063C9.57273 0.606222 9.33618 0.50824 9.08953 0.50824H6.94953C6.70288 0.50824 6.46633 0.606222 6.29192 0.78063C6.11751 0.955039 6.01953 1.19159 6.01953 1.43824C6.02048 1.62287 5.96646 1.80361 5.86434 1.95743C5.76221 2.11125 5.61661 2.2312 5.44608 2.30198C5.27556 2.37277 5.08782 2.39119 4.90678 2.35491C4.72575 2.31862 4.55961 2.22927 4.42953 2.09824C4.34465 2.01023 4.2429 1.94023 4.13036 1.89242C4.01782 1.84461 3.8968 1.81996 3.77453 1.81996C3.65226 1.81996 3.53124 1.84461 3.4187 1.89242C3.30616 1.94023 3.20441 2.01023 3.11953 2.09824L1.60953 3.60824C1.52152 3.69312 1.45152 3.79487 1.40371 3.90741C1.3559 4.01995 1.33125 4.14097 1.33125 4.26324C1.33125 4.38551 1.3559 4.50653 1.40371 4.61907C1.45152 4.73161 1.52152 4.83336 1.60953 4.91824C1.74057 5.04832 1.82992 5.21446 1.8662 5.39549C1.90248 5.57653 1.88406 5.76427 1.81327 5.93479C1.74249 6.10532 1.62255 6.25092 1.46872 6.35304C1.3149 6.45517 1.13416 6.50919 0.949531 6.50824C0.70288 6.50824 0.466331 6.60622 0.291922 6.78063C0.117513 6.95504 0.0195312 7.19159 0.0195312 7.43824V9.57824C0.0195312 9.82489 0.117513 10.0614 0.291922 10.2358C0.466331 10.4103 0.70288 10.5082 0.949531 10.5082C1.13416 10.5073 1.3149 10.5613 1.46872 10.6634C1.62255 10.7656 1.74249 10.9112 1.81327 11.0817C1.88406 11.2522 1.90248 11.44 1.8662 11.621C1.82992 11.802 1.74057 11.9682 1.60953 12.0982C1.52152 12.1831 1.45152 12.2849 1.40371 12.3974C1.3559 12.5099 1.33125 12.631 1.33125 12.7532C1.33125 12.8755 1.3559 12.9965 1.40371 13.1091C1.45152 13.2216 1.52152 13.3234 1.60953 13.4082L3.11953 14.9182C3.20441 15.0062 3.30616 15.0763 3.4187 15.1241C3.53124 15.1719 3.65226 15.1965 3.77453 15.1965C3.8968 15.1965 4.01782 15.1719 4.13036 15.1241C4.2429 15.0763 4.34465 15.0062 4.42953 14.9182C4.55961 14.7872 4.72575 14.6979 4.90678 14.6616C5.08782 14.6253 5.27556 14.6437 5.44608 14.7145C5.61661 14.7853 5.76221 14.9052 5.86434 15.059C5.96646 15.2129 6.02048 15.3936 6.01953 15.5782C6.01953 15.8249 6.11751 16.0614 6.29192 16.2358C6.46633 16.4103 6.70288 16.5082 6.94953 16.5082H9.08953C9.33618 16.5082 9.57273 16.4103 9.74714 16.2358C9.92155 16.0614 10.0195 15.8249 10.0195 15.5782C10.0186 15.3936 10.0726 15.2129 10.1747 15.059C10.2768 14.9052 10.4224 14.7853 10.593 14.7145C10.7635 14.6437 10.9512 14.6253 11.1323 14.6616C11.3133 14.6979 11.4795 14.7872 11.6095 14.9182C11.6944 15.0062 11.7962 15.0763 11.9087 15.1241C12.0212 15.1719 12.1423 15.1965 12.2645 15.1965C12.3868 15.1965 12.5078 15.1719 12.6204 15.1241C12.7329 15.0763 12.8346 15.0062 12.9195 14.9182L14.4295 13.4082C14.5175 13.3234 14.5875 13.2216 14.6354 13.1091C14.6832 12.9965 14.7078 12.8755 14.7078 12.7532C14.7078 12.631 14.6832 12.5099 14.6354 12.3974C14.5875 12.2849 14.5175 12.1831 14.4295 12.0982C14.2985 11.9682 14.2091 11.802 14.1729 11.621C14.1366 11.44 14.155 11.2522 14.2258 11.0817C14.2966 10.9112 14.4165 10.7656 14.5703 10.6634C14.7242 10.5613 14.9049 10.5073 15.0895 10.5082C15.3362 10.5082 15.5727 10.4103 15.7471 10.2358C15.9215 10.0614 16.0195 9.82489 16.0195 9.57824V7.43824C16.0195 7.19159 15.9215 6.95504 15.7471 6.78063C15.5727 6.60622 15.3362 6.50824 15.0895 6.50824Z" fill="#B584FF"/>
<path d="M22.0195 34.5082H14.0195V20.5082L22.0195 19.5082V34.5082Z" fill="#B584FF"/>
<defs>
<linearGradient id="paint0_linear_61_33745" x1="317.02" y1="202.508" x2="573.02" y2="202.508" gradientUnits="userSpaceOnUse">
<stop offset="0.666667" stop-color="#B584FF"/>
<stop offset="1" stop-color="#935B9D"/>
</linearGradient>
<linearGradient id="paint1_linear_61_33745" x1="365.547" y1="612.788" x2="1264.37" y2="612.788" gradientUnits="userSpaceOnUse">
<stop stop-color="#A163FE"/>
<stop offset="1" stop-color="#A265FE" stop-opacity="0"/>
</linearGradient>
</defs>
</svg>
