<svg width="36" height="47" viewBox="0 0 36 47" fill="none" xmlns="http://www.w3.org/2000/svg">
<path d="M35.4604 27.793V23.9225C35.4604 22.7262 34.4906 21.7567 33.2946 21.7567H2.70487C1.50881 21.7567 0.539062 22.7262 0.539062 23.9225V27.793C0.539062 28.9893 1.50881 29.9588 2.70487 29.9588C1.50881 29.9588 0.539062 30.9286 0.539062 32.1247V35.9952C0.539062 37.1915 1.50881 38.161 2.70487 38.161C1.50881 38.161 0.539062 39.1306 0.539062 40.3268V44.1974C0.539062 45.3937 1.50881 46.3632 2.70487 46.3632H33.2946C34.4906 46.3632 35.4604 45.3937 35.4604 44.1974V40.3268C35.4604 39.1306 34.4906 38.161 33.2946 38.161C34.4906 38.161 35.4604 37.1915 35.4604 35.9952V32.1247C35.4604 30.9286 34.4906 29.9588 33.2946 29.9588C34.4908 29.9588 35.4604 28.9893 35.4604 27.793Z" fill="#72C1E8"/>
<path d="M27.8717 10.9182H23.1411L17.9607 5.53135L12.7799 10.9182H8.04736L17.9605 0.61322L27.8717 10.9182Z" fill="#13BF6D"/>
<path d="M24.9619 10.9182H23.1413L17.9608 5.53132L12.78 10.9182H10.9575L17.9606 3.63757L24.9619 10.9182Z" fill="#139C6E"/>
<path d="M27.8718 15.8365H22.4594V21.7546L13.4585 21.7566L13.4562 15.8365H8.04834L12.7805 10.918L17.9609 5.53131L23.1417 10.918L27.8718 15.8365Z" fill="#13BF6D"/>
<path d="M20.3438 20.6757C20.085 20.6757 19.875 20.4657 19.875 20.207V17.957C19.875 17.6982 20.085 17.4882 20.3438 17.4882C20.6025 17.4882 20.8125 17.6982 20.8125 17.957V20.207C20.8125 20.4657 20.6025 20.6757 20.3438 20.6757ZM20.3438 16.5507C20.085 16.5507 19.875 16.3407 19.875 16.082C19.875 15.8232 20.085 15.6132 20.3438 15.6132C20.6025 15.6132 20.8125 15.8232 20.8125 16.082C20.8125 16.3407 20.6025 16.5507 20.3438 16.5507Z" fill="#76FFBB"/>
<path d="M7.80409 27.5691C8.74922 27.5691 9.5154 26.803 9.5154 25.8578C9.5154 24.9127 8.74922 24.1465 7.80409 24.1465C6.85895 24.1465 6.09277 24.9127 6.09277 25.8578C6.09277 26.803 6.85895 27.5691 7.80409 27.5691Z" fill="#F2E1D6"/>
<path d="M7.80409 43.9733C8.74922 43.9733 9.5154 43.2071 9.5154 42.262C9.5154 41.3169 8.74922 40.5507 7.80409 40.5507C6.85895 40.5507 6.09277 41.3169 6.09277 42.262C6.09277 43.2071 6.85895 43.9733 7.80409 43.9733Z" fill="#F2E1D6"/>
<path d="M7.80409 35.7713C8.74922 35.7713 9.5154 35.0051 9.5154 34.06C9.5154 33.1149 8.74922 32.3487 7.80409 32.3487C6.85895 32.3487 6.09277 33.1149 6.09277 34.06C6.09277 35.0051 6.85895 35.7713 7.80409 35.7713Z" fill="#F2E1D6"/>
<path d="M21.21 3.99177C21.0244 4.16989 21.0186 4.46802 21.1969 4.65552C21.376 4.83814 21.6703 4.84902 21.8607 4.66696C22.0463 4.48883 22.0519 4.19071 21.8738 4.00508C21.6992 3.82321 21.39 3.81758 21.21 3.99177Z" fill="black"/>
<path d="M21.6187 25.3889H13.1836C12.9247 25.3889 12.7148 25.5987 12.7148 25.8577C12.7148 26.1166 12.9247 26.3264 13.1836 26.3264H21.6187C21.8776 26.3264 22.0874 26.1166 22.0874 25.8577C22.0874 25.5987 21.8776 25.3889 21.6187 25.3889Z" fill="black"/>
<path d="M25.1856 24.3629H24.9287C24.6698 24.3629 24.46 24.5727 24.46 24.8317C24.46 25.0906 24.6698 25.3004 24.9287 25.3004H25.1856C25.4445 25.3004 25.6543 25.0906 25.6543 24.8317C25.6543 24.5727 25.4445 24.3629 25.1856 24.3629Z" fill="black"/>
<path d="M26.7598 26.4136H26.5029C26.244 26.4136 26.0342 26.6234 26.0342 26.8823C26.0342 27.1413 26.244 27.3511 26.5029 27.3511H26.7598C27.0187 27.3511 27.2286 27.1413 27.2286 26.8823C27.2286 26.6234 27.0187 26.4136 26.7598 26.4136Z" fill="black"/>
<path d="M28.3337 24.3629H28.0767C27.8177 24.3629 27.6079 24.5727 27.6079 24.8317C27.6079 25.0906 27.8177 25.3004 28.0767 25.3004H28.3337C28.5927 25.3004 28.8025 25.0906 28.8025 24.8317C28.8025 24.5727 28.5927 24.3629 28.3337 24.3629Z" fill="black"/>
<path d="M29.9073 26.4136H29.6504C29.3915 26.4136 29.1816 26.6234 29.1816 26.8823C29.1816 27.1413 29.3915 27.3511 29.6504 27.3511H29.9073C30.1662 27.3511 30.376 27.1413 30.376 26.8823C30.376 26.6234 30.1662 26.4136 29.9073 26.4136Z" fill="black"/>
<path d="M7.80409 23.6776C6.60184 23.6776 5.62402 24.6556 5.62402 25.8577C5.62402 27.0599 6.60202 28.0379 7.80409 28.0379C9.00615 28.0379 9.98415 27.0599 9.98415 25.8577C9.98415 24.6556 9.00615 23.6776 7.80409 23.6776ZM7.80409 27.1004C7.11896 27.1004 6.56152 26.5428 6.56152 25.8577C6.56152 25.1725 7.11896 24.6151 7.80409 24.6151C8.48921 24.6151 9.04665 25.1725 9.04665 25.8577C9.04665 26.5428 8.48921 27.1004 7.80409 27.1004Z" fill="black"/>
<path d="M16.7456 42.7313C17.0045 42.7313 17.2144 42.5215 17.2144 42.2626C17.2144 42.0037 17.0045 41.7938 16.7456 41.7938C16.4867 41.7938 16.2769 42.0037 16.2769 42.2626C16.2769 42.5215 16.4867 42.7313 16.7456 42.7313Z" fill="black"/>
<path d="M22.0875 42.2626C22.0875 42.0038 21.8775 41.7938 21.6187 41.7938H18.6206C18.3619 41.7938 18.1519 42.0038 18.1519 42.2626C18.1519 42.5213 18.3619 42.7313 18.6206 42.7313H21.6187C21.8775 42.7313 22.0875 42.5211 22.0875 42.2626Z" fill="black"/>
<path d="M13.1831 41.7938C12.9244 41.7938 12.7144 42.0038 12.7144 42.2626C12.7144 42.5213 12.9244 42.7313 13.1831 42.7313H14.8706C15.1294 42.7313 15.3394 42.5213 15.3394 42.2626C15.3394 42.0038 15.1294 41.7938 14.8706 41.7938H13.1831Z" fill="black"/>
<path d="M25.1856 41.7048C25.4445 41.7048 25.6543 41.495 25.6543 41.236C25.6543 40.9771 25.4445 40.7673 25.1856 40.7673H24.9287C24.6698 40.7673 24.46 40.9771 24.46 41.236C24.46 41.495 24.6698 41.7048 24.9287 41.7048H25.1856Z" fill="black"/>
<path d="M26.7598 43.7555C27.0187 43.7555 27.2286 43.5457 27.2286 43.2867C27.2286 43.0278 27.0187 42.818 26.7598 42.818H26.5029C26.244 42.818 26.0342 43.0278 26.0342 43.2867C26.0342 43.5457 26.244 43.7555 26.5029 43.7555H26.7598Z" fill="black"/>
<path d="M28.3337 41.7048C28.5927 41.7048 28.8025 41.495 28.8025 41.236C28.8025 40.9771 28.5927 40.7673 28.3337 40.7673H28.0767C27.8177 40.7673 27.6079 40.9771 27.6079 41.236C27.6079 41.495 27.8177 41.7048 28.0767 41.7048H28.3337Z" fill="black"/>
<path d="M29.9073 43.7555C30.1662 43.7555 30.376 43.5457 30.376 43.2867C30.376 43.0278 30.1662 42.818 29.9073 42.818H29.6504C29.3915 42.818 29.1816 43.0278 29.1816 43.2867C29.1816 43.5457 29.3915 43.7555 29.6504 43.7555H29.9073Z" fill="black"/>
<path d="M5.62402 42.2622C5.62402 43.4643 6.60202 44.4423 7.80409 44.4423C9.00615 44.4423 9.98415 43.4643 9.98415 42.2622C9.98415 41.06 9.00615 40.082 7.80409 40.082C6.60202 40.082 5.62402 41.06 5.62402 42.2622ZM9.04684 42.2622C9.04684 42.9473 8.4894 43.5048 7.80427 43.5048C7.11915 43.5048 6.56171 42.9473 6.56171 42.2622C6.56171 41.5771 7.11915 41.0195 7.80427 41.0195C8.4894 41.0195 9.04684 41.5769 9.04684 42.2622Z" fill="black"/>
<path d="M12.7148 34.06C12.7148 34.319 12.9247 34.5288 13.1836 34.5288H21.6187C21.8776 34.5288 22.0874 34.319 22.0874 34.06C22.0874 33.8011 21.8776 33.5913 21.6187 33.5913H13.1836C12.9247 33.5913 12.7148 33.8011 12.7148 34.06Z" fill="black"/>
<path d="M24.9287 33.5026H25.1856C25.4445 33.5026 25.6543 33.2928 25.6543 33.0338C25.6543 32.7749 25.4445 32.5651 25.1856 32.5651H24.9287C24.6698 32.5651 24.46 32.7749 24.46 33.0338C24.46 33.2928 24.6698 33.5026 24.9287 33.5026Z" fill="black"/>
<path d="M26.5029 35.5533H26.7598C27.0187 35.5533 27.2286 35.3435 27.2286 35.0845C27.2286 34.8256 27.0187 34.6158 26.7598 34.6158H26.5029C26.244 34.6158 26.0342 34.8256 26.0342 35.0845C26.0342 35.3435 26.244 35.5533 26.5029 35.5533Z" fill="black"/>
<path d="M28.0767 33.5026H28.3337C28.5927 33.5026 28.8025 33.2928 28.8025 33.0338C28.8025 32.7749 28.5927 32.5651 28.3337 32.5651H28.0767C27.8177 32.5651 27.6079 32.7749 27.6079 33.0338C27.6079 33.2928 27.8177 33.5026 28.0767 33.5026Z" fill="black"/>
<path d="M29.6504 35.5533H29.9073C30.1662 35.5533 30.376 35.3435 30.376 35.0845C30.376 34.8256 30.1662 34.6158 29.9073 34.6158H29.6504C29.3915 34.6158 29.1816 34.8256 29.1816 35.0845C29.1816 35.3435 29.3915 35.5533 29.6504 35.5533Z" fill="black"/>
<path d="M7.80409 31.88C6.60184 31.88 5.62402 32.858 5.62402 34.06C5.62402 35.2621 6.60202 36.2401 7.80409 36.2401C9.00615 36.2401 9.98415 35.2621 9.98415 34.06C9.98415 32.858 9.00615 31.88 7.80409 31.88ZM7.80409 35.3024C7.11896 35.3024 6.56152 34.745 6.56152 34.0599C6.56152 33.3747 7.11896 32.8173 7.80409 32.8173C8.48921 32.8173 9.04665 33.3747 9.04665 34.0599C9.04665 34.745 8.48921 35.3024 7.80409 35.3024Z" fill="black"/>
<path d="M15.1387 7.78866C14.9584 7.9771 14.9659 8.27053 15.1519 8.45241C15.3298 8.62285 15.627 8.63166 15.8156 8.43947C15.9937 8.25385 15.9881 7.95572 15.8025 7.77572C15.6225 7.60303 15.3131 7.60866 15.1387 7.78866Z" fill="black"/>
<path d="M19.8091 46.832C20.068 46.832 20.2778 46.6221 20.2778 46.3632C20.2778 46.1043 20.068 45.8945 19.8091 45.8945C19.5502 45.8945 19.3403 46.1043 19.3403 46.3632C19.3403 46.6221 19.5502 46.832 19.8091 46.832Z" fill="black"/>
<path d="M35.9288 27.7932V23.923C35.9288 22.4699 34.7474 21.2887 33.2942 21.2887H22.9275V16.3049H27.8717C28.2906 16.3049 28.492 15.8028 28.2094 15.512L24.2419 11.387H27.8717C28.2863 11.387 28.4942 10.8875 28.2094 10.5938L23.1732 5.35528C22.9988 5.17528 22.6894 5.16965 22.5113 5.34384C22.3285 5.5154 22.312 5.81559 22.4984 6.00571V6.00759L26.7715 10.4495H23.3404L18.2982 5.20696C18.1219 5.02321 17.7994 5.02321 17.6232 5.20696L16.4382 6.43696C16.26 6.62446 16.2657 6.92071 16.4513 7.10071C16.6332 7.27509 16.9407 7.26778 17.115 7.08759L17.9607 6.2084C18.8219 7.10371 25.8104 14.3688 26.7713 15.3678H22.4588C22.1982 15.3678 21.99 15.5826 21.99 15.8365V21.2855L13.9275 21.2873L13.9257 15.8367C13.9238 15.578 13.7138 15.368 13.4569 15.368H9.15004L14.5144 9.7919C14.6955 9.60309 14.6875 9.30478 14.5032 9.12815C14.3213 8.95565 14.0138 8.96109 13.8394 9.14109L12.5804 10.4498H9.15004L17.9607 1.2899L19.8975 3.30365C20.0719 3.48365 20.3792 3.48928 20.5613 3.31678C20.7467 3.13678 20.7525 2.84053 20.5742 2.65303L18.2982 0.288651C18.1219 0.105089 17.7975 0.106776 17.6232 0.288651L7.71004 10.5918C7.42223 10.8922 7.63879 11.3868 8.04754 11.3868H11.6785L7.71004 15.5118C7.42466 15.8095 7.63541 16.3047 8.04754 16.3047H12.9882L12.9899 21.2885H2.70566C1.25254 21.2885 0.0712891 22.4697 0.0712891 23.9228V27.793C0.0712891 28.6572 0.495039 29.4655 1.20566 29.9587C0.495039 30.4518 0.0712891 31.2599 0.0712891 32.1243V35.9962C0.0712891 36.8587 0.495039 37.6668 1.20566 38.1599C0.495039 38.653 0.0712891 39.463 0.0712891 40.3274V44.1976C0.0712891 45.6507 1.25254 46.832 2.70566 46.832H17.9344C18.1932 46.832 18.4032 46.622 18.4032 46.3632C18.4032 46.1045 18.1934 45.8945 17.9344 45.8945H2.70566C1.77191 45.8926 1.01066 45.1313 1.00879 44.1976V40.3274C1.01066 39.3957 1.76554 38.6376 2.69385 38.6294C2.69798 38.6294 2.70173 38.6305 2.70566 38.6305H33.2944C33.2985 38.6305 33.3023 38.6294 33.3062 38.6294C34.2364 38.6376 34.9894 39.3957 34.9913 40.3274V44.1976C34.9892 45.1311 34.2299 45.8926 33.2942 45.8945H21.6842C21.4255 45.8945 21.2155 46.1045 21.2155 46.3632C21.2155 46.622 21.4255 46.832 21.6842 46.832H33.2942C34.7474 46.832 35.9288 45.6507 35.9288 44.1976V40.3274C35.9288 39.4632 35.5049 38.653 34.7942 38.1599C35.5049 37.6686 35.9288 36.8587 35.9288 35.9962V32.1243C35.9288 31.2601 35.5049 30.4518 34.7942 29.9587C35.5049 29.4657 35.9288 28.6574 35.9288 27.7932ZM34.9913 27.7932C34.9892 28.7268 34.2299 29.4882 33.2942 29.4901H13.9557C13.6969 29.4901 13.4869 29.7001 13.4869 29.9588C13.4869 30.2176 13.6969 30.4276 13.9557 30.4276H33.2944C34.23 30.4295 34.9894 31.1907 34.9915 32.1245V35.9963C34.9894 36.9299 34.23 37.6913 33.2944 37.6913H2.70566C1.77191 37.6913 1.01066 36.9299 1.00879 35.9963V32.1245C1.01066 31.1909 1.77191 30.4295 2.70566 30.4276H10.2057C10.4644 30.4276 10.6744 30.2176 10.6744 29.9588C10.6744 29.7001 10.4644 29.4901 10.2057 29.4901H2.70566C1.77191 29.4882 1.01066 28.727 1.00879 27.7932V23.923C1.01066 22.9895 1.77191 22.2261 2.70566 22.2243H33.2944C34.23 22.2261 34.9894 22.9893 34.9915 23.923V27.7932H34.9913Z" fill="black"/>
<path d="M12.0806 30.4274C12.3394 30.4274 12.5493 30.2175 12.5493 29.9586C12.5493 29.6998 12.3394 29.4899 12.0806 29.4899C11.8217 29.4899 11.6118 29.6998 11.6118 29.9586C11.6118 30.2175 11.8217 30.4274 12.0806 30.4274Z" fill="black"/>
</svg>
