<svg width="48" height="56" viewBox="0 0 48 56" fill="none" xmlns="http://www.w3.org/2000/svg">
<path d="M39.3531 44.3852L27.1728 54.0766C25.5121 55.3979 23.1638 55.4144 21.485 54.1162L8.93782 44.4153C3.23959 40.0097 0 33.8176 0 27.3311V14.7801C0 13.0209 1.00174 11.415 2.58187 10.6413L22.3528 0.961142C23.6512 0.325499 25.1729 0.335931 26.4624 0.989527L45.4747 10.6258C47.0235 11.4109 47.9995 12.9998 47.9995 14.7361V27.5291C48 33.8996 44.8747 39.9918 39.3531 44.3852Z" fill="#478CF7"/>
<path d="M45.4754 10.6258L45.1972 10.4849C45.4417 11.0514 45.5742 11.6707 45.5742 12.31V25.1029C45.5742 31.4734 42.4491 37.5657 36.9273 41.9591L24.7469 51.6505C23.0863 52.9718 20.738 52.9883 19.0591 51.69L6.512 41.9894C6.10053 41.6711 5.70192 41.3439 5.31641 41.0076C6.37905 42.2304 7.58968 43.3731 8.93811 44.4156L21.4853 54.1162C23.1641 55.4141 25.5124 55.3979 27.1731 54.0766L39.3534 44.3852C44.875 39.9918 48.0003 33.8998 48.0003 27.5291V14.7361C48.0003 12.9998 47.0243 11.4109 45.4754 10.6258Z" fill="#377DE2"/>
<path d="M45.9865 10.9281C46.4984 11.6792 46.7867 12.5793 46.7867 13.5231V26.316C46.7867 32.6865 43.6616 38.7787 38.1397 43.1722L25.9594 52.8635C24.2987 54.1848 21.9505 54.2013 20.2716 52.9031L7.72448 43.2025C7.07889 42.7034 6.46509 42.1813 5.88379 41.6386C6.80377 42.6251 7.82371 43.5545 8.93754 44.4156L21.4847 54.1161C23.1636 55.4141 25.5118 55.3979 27.1725 54.0766L39.3528 44.3852C44.8744 39.9918 47.9997 33.8998 47.9997 27.5291V14.7361C48 13.1997 47.2355 11.7789 45.9865 10.9281Z" fill="#2266D3"/>
<path d="M1.4569 27.8168C1.19003 27.8168 0.97168 27.5984 0.97168 27.3316C0.97168 27.0647 1.19003 26.8463 1.4569 26.8463C1.72378 26.8463 1.94213 27.0647 1.94213 27.3316C1.94213 27.5984 1.72378 27.8168 1.4569 27.8168ZM1.4569 25.8759C1.19003 25.8759 0.97168 25.6576 0.97168 25.3907V14.7813C0.97168 13.4032 1.7723 12.1198 3.00962 11.5133L22.78 1.83308C23.0154 1.71663 23.3138 1.82095 23.4302 2.05629C23.5467 2.29647 23.4472 2.5876 23.207 2.70406L3.43661 12.3843C2.52682 12.8282 1.9397 13.7672 1.94213 14.7813V25.3907C1.94213 25.6576 1.72378 25.8759 1.4569 25.8759Z" fill="#5E9CF7"/>
<path d="M33.6042 41.7432H14.3961C13.7001 41.7432 13.1357 41.1789 13.1357 40.4829V24.3722C13.1357 23.6762 13.7001 23.1119 14.3961 23.1119H33.6039C34.3 23.1119 34.8643 23.6762 34.8643 24.3722V40.4829C34.8643 41.1789 34.3002 41.7432 33.6042 41.7432Z" fill="#FFA91A"/>
<path d="M33.6039 23.1121H32.4382V38.0568C32.4382 38.7528 31.8739 39.3171 31.1778 39.3171H13.1357V40.4829C13.1357 41.1789 13.7001 41.7432 14.3961 41.7432H33.6039C34.3 41.7432 34.8643 41.1789 34.8643 40.4829V24.3722C34.864 23.6764 34.3 23.1121 33.6039 23.1121Z" fill="#F79219"/>
<path d="M33.2125 23.1121H30.0617V17.5614C30.0617 14.2192 27.3425 11.5 24.0003 11.5C20.6581 11.5 17.9389 14.2192 17.9389 17.5614V23.1121H14.7881V17.5614C14.7881 12.4818 18.9205 8.34918 24.0003 8.34918C29.0801 8.34918 33.2125 12.4816 33.2125 17.5614V23.1121Z" fill="#E6E7E8"/>
<path d="M29.9014 10.4725C31.2265 12.0684 32.0245 14.1168 32.0245 16.3483V21.8991H30.0867V23.1121H33.2375V17.5614C33.2375 14.7134 31.9381 12.1635 29.9014 10.4725Z" fill="#D1D3D4"/>
<path d="M26.968 36.0149L25.4014 31.6407C26.0842 31.1867 26.5347 30.4111 26.5347 29.5297C26.5347 28.1301 25.4 26.9956 24.0006 26.9956C22.6012 26.9956 21.4665 28.1301 21.4665 29.5297C21.4665 30.4111 21.9171 31.1867 22.5998 31.6407L21.0332 36.0149C20.8069 36.6472 21.2754 37.3127 21.9469 37.3127H26.0548C26.7259 37.3124 27.1943 36.6469 26.968 36.0149Z" fill="#995222"/>
<path d="M26.9677 36.0149L25.4011 31.6406C26.0838 31.1867 26.5344 30.4111 26.5344 29.5297C26.5344 28.5713 26.0023 27.7377 25.2177 27.3071C25.415 27.6679 25.5275 28.0815 25.5275 28.5216C25.5275 29.403 25.077 30.1786 24.3943 30.6326L25.9608 35.0069C26.1872 35.6391 25.7187 36.3046 25.0472 36.3046H20.9774C20.9558 36.8349 21.3772 37.3126 21.9461 37.3126H26.054C26.7256 37.3124 27.194 36.6469 26.9677 36.0149Z" fill="#8C3F0A"/>
</svg>
