<svg width="67" height="67" viewBox="0 0 67 67" fill="none" xmlns="http://www.w3.org/2000/svg">
<rect x="5.5" y="5.5" width="56" height="56" rx="28" fill="#C6EAFF"/>
<path d="M37.8929 45.9912V42.9419L32.9834 41.9255L33.9998 45.9912H37.8929Z" fill="#F5F5FF"/>
<path d="M30.1064 45.9912H33.9995V41.9255L30.1064 42.9419V45.9912Z" fill="#F5F5FF"/>
<path d="M46.9998 38.3679L32.9834 37.3515L33.9998 42.9419H46.9998V38.3679Z" fill="#F5F5FF"/>
<path d="M21 38.3679V42.9419H34V37.3515L21 38.3679Z" fill="#F5F5FF"/>
<path d="M40.1799 45.2295H33.9999L33.4917 45.9912L33.9999 46.753H40.1799V45.2295Z" fill="#61D0FF"/>
<path d="M34.0004 45.2292H27.8203V46.7527H34.0004V45.2292Z" fill="#61D0FF"/>
<path d="M46.9998 23.125H33.9998L32.9834 30.7465L33.9998 38.3679H46.9998V23.125Z" fill="#61D0FF"/>
<path d="M34 23.125H21V38.368H34V23.125Z" fill="#5DC5F1"/>
<path d="M30.0807 34.7823L26.0449 30.7465L30.0807 26.7107L31.1579 27.7879L28.1994 30.7465L31.1579 33.705L30.0807 34.7823Z" fill="#F5F5FF"/>
<path d="M37.919 34.7822L36.8418 33.705L39.8004 30.7464L36.8418 27.7879L37.919 26.7106L41.9548 30.7464L37.919 34.7822Z" fill="#D1E8FF"/>
<path d="M32.3134 35.3202L33.8076 35.6174L35.6863 26.173L34.1921 25.8758L32.3134 35.3202Z" fill="#D1E8FF"/>
<rect x="5.5" y="5.5" width="56" height="56" rx="28" stroke="#DDF3FF" stroke-width="10"/>
</svg>
